<svg width="43" height="51" viewBox="0 0 43 51" fill="none" xmlns="http://www.w3.org/2000/svg">
<path d="M23.5 1H3C1.89543 1 1 1.89543 1 3V46C1 47.1046 1.89543 48 3 48H27.5M27.5 1H35C36.1046 1 37 1.89543 37 3V31.2143" stroke="black" stroke-width="1.5"/>
<path d="M37 30V32.5" stroke="black" stroke-width="1.5"/>
<circle cx="33" cy="40.5" r="9.25" stroke="black" stroke-width="1.5"/>
<path d="M32.9676 48.4355C34.1864 48.4355 35.1779 47.4441 35.1779 46.2253V43.1781H38.2251C39.4805 43.1781 40.4921 42.1275 40.433 40.8622C40.3773 39.6819 39.3893 38.7576 38.1839 38.7576H35.1779V35.752C35.1779 34.5462 34.2536 33.5582 33.0729 33.5025C31.8045 33.443 30.7574 34.4565 30.7574 35.7101V38.7576H27.7518C26.5128 38.7576 25.5 39.7349 25.5 40.9679C25.5 42.1867 26.4914 43.1781 27.7102 43.1781H30.7574V46.1837C30.7574 47.4227 31.7347 48.4355 32.9676 48.4355V48.4355ZM27.7099 41.7045C27.2967 41.7045 26.9549 41.3612 26.974 40.9312C26.9923 40.5452 27.341 40.2312 27.7518 40.2312H31.2117C31.7736 40.2312 32.231 39.7739 32.231 39.212V35.7104C32.231 35.2969 32.5747 34.9555 33.0043 34.9746C33.3903 34.9925 33.7043 35.3416 33.7043 35.752V39.212C33.7043 39.7742 34.1616 40.2312 34.7235 40.2312H38.1839C38.5978 40.2312 38.9621 40.5536 38.9621 40.9679C38.9621 41.3741 38.6317 41.7049 38.2254 41.7049H34.7235C34.1616 41.7049 33.7046 42.1619 33.7046 42.7238V46.2257C33.7046 46.6388 33.3609 46.9806 32.931 46.9615C32.545 46.9432 32.231 46.5945 32.231 46.1841V42.7238C32.231 42.1619 31.774 41.7045 31.2117 41.7045H27.7099Z" fill="black"/>
<path d="M21.6679 6.47324C22.0749 6.47324 22.4045 6.14365 22.4045 5.73662C22.4045 5.32959 22.0749 5 21.6679 5H15.2577C14.851 5 14.521 5.32959 14.521 5.73662C14.521 6.14365 14.851 6.47324 15.2577 6.47324H17.7262V8.6129C16.1759 8.6869 14.6671 9.01878 13.2324 9.60243C12.8555 9.75578 12.6743 10.1857 12.8277 10.5626C12.981 10.9395 13.411 11.1203 13.7879 10.9673C21.6541 7.7668 30.7617 13.392 30.7617 22.2997V24.3275H6.16418V22.2997C6.16418 18.3278 8.1051 14.5882 11.356 12.2968C11.6886 12.0621 11.7684 11.6029 11.5338 11.2702C11.2995 10.9376 10.8399 10.8582 10.5072 11.0925C6.86494 13.6597 4.69057 17.8494 4.69057 22.2997V24.635C3.98027 25.0397 3.5 25.8038 3.5 26.6782V26.73C3.5 28.0263 4.55476 29.081 5.851 29.081H31.0749C32.3712 29.081 33.4259 28.0267 33.4259 26.73V26.6782C33.4259 25.8038 32.9456 25.0397 32.2354 24.635V22.2997C32.2354 14.9678 26.4469 8.96271 19.1998 8.61366V6.47324H21.6679ZM31.9523 26.6782V26.7304C31.9523 27.2141 31.5586 27.6078 31.0749 27.6078H5.85062C5.36729 27.6078 4.97362 27.2141 4.97362 26.7304V26.6782C4.97362 26.1945 5.36691 25.8008 5.85062 25.8008H31.0749C31.5586 25.8008 31.9523 26.1945 31.9523 26.6782Z" fill="black"/>
<path d="M4.73851 34.166H23.0007C23.3536 34.166 23.6396 33.836 23.6396 33.4294C23.6396 33.0224 23.3536 32.6924 23.0007 32.6924H4.73851C4.38566 32.6924 4.09961 33.0224 4.09961 33.4294C4.09961 33.836 4.38566 34.166 4.73851 34.166Z" fill="black"/>
<path d="M21 38.0032C21 37.5966 20.7366 37.2666 20.412 37.2666H4.58833C4.26341 37.2666 4 37.5966 4 38.0032C4 38.4102 4.26341 38.7398 4.58833 38.7398H20.412C20.7366 38.7398 21 38.4102 21 38.0032Z" fill="black"/>
<path d="M4.45471 41.8398C4.20358 41.8398 4 42.1694 4 42.5765C4 42.9835 4.20358 43.3131 4.45471 43.3131H13.5455C13.7964 43.3131 14 42.9835 14 42.5765C14 42.1694 13.7964 41.8398 13.5455 41.8398H4.45471Z" fill="black"/>
<path d="M15.7366 43.3131H19.7764C20.1834 43.3131 20.513 42.9835 20.513 42.5765C20.513 42.1694 20.1834 41.8398 19.7764 41.8398H15.7366C15.33 41.8398 15 42.1694 15 42.5765C15 42.9835 15.33 43.3131 15.7366 43.3131V43.3131Z" fill="black"/>
</svg>
