<svg width="70" height="70" viewBox="0 0 70 70" fill="none" xmlns="http://www.w3.org/2000/svg">
<g clip-path="url(#clip0)">
<path d="M45.2203 30.8525L47.688 30.6958C47.6922 30.6955 47.6967 30.6952 47.7011 30.6949C49.4597 30.5462 51.0382 29.6232 52.0322 28.1617L53.983 25.294C55.6809 22.7974 56.3388 19.782 55.8348 16.8035C55.7357 16.2185 55.4371 15.6795 54.9943 15.2862C54.5511 14.8925 53.9814 14.6601 53.3898 14.6318C50.3771 14.4874 47.4692 15.5035 45.1992 17.4919L42.5915 19.7762C41.2626 20.9401 40.5372 22.6208 40.6006 24.3883C40.6009 24.3924 40.6009 24.3969 40.6013 24.4014L40.7419 26.8746C40.7967 27.8387 40.4439 28.79 39.7758 29.4829L19.4032 50.4527C18.8578 51.0226 18.5761 51.8044 18.6104 52.6542C18.6482 53.5898 19.0767 54.5087 19.7566 55.1126C20.3709 55.6581 21.2152 55.9689 22.0593 55.9689C22.1496 55.9689 22.24 55.9653 22.33 55.9579C23.1763 55.8902 23.9175 55.5165 24.4193 54.902L42.7504 32.1278C43.3583 31.3784 44.2587 30.9135 45.2203 30.8525ZM41.7718 31.3341L23.4423 54.1064C23.1622 54.4493 22.7315 54.6605 22.2297 54.7007C21.6328 54.7485 21.0207 54.5494 20.592 54.1687C20.1632 53.7876 19.8928 53.2026 19.8688 52.6032C19.8483 52.0994 20.0056 51.6458 20.3087 51.3292L40.6798 30.361C41.593 29.4142 42.0737 28.1174 41.9993 26.803L41.8586 24.3363C41.8109 22.9528 42.3797 21.6374 43.4201 20.7259L46.0278 18.4416C48.0517 16.669 50.6453 15.7639 53.3299 15.8917C53.6356 15.9065 53.9298 16.0265 54.1589 16.2301C54.388 16.4333 54.5421 16.712 54.5934 17.0141C55.0426 19.6696 54.4562 22.3576 52.9425 24.5832L50.9917 27.4512C50.2134 28.5955 48.9781 29.3188 47.6015 29.4373L45.1405 29.5933C43.8293 29.6768 42.6021 30.3106 41.7718 31.3341Z" fill="white"/>
<path d="M54.8369 50.2935L41.1771 37.8276C40.9201 37.5929 40.5221 37.6115 40.2876 37.869C40.0536 38.1265 40.0722 38.5256 40.3292 38.7603L53.9855 51.2232C54.3105 51.5241 54.4947 51.9675 54.5046 52.4715C54.5165 53.0713 54.2816 53.6713 53.8763 54.0775C53.4712 54.4833 52.8733 54.7193 52.2734 54.7071C51.7704 54.6971 51.3278 54.5125 51.0308 54.1905L38.8587 40.8009C38.6245 40.5431 38.2262 40.5248 37.9692 40.7592C37.7122 40.9939 37.6936 41.393 37.9279 41.6505L50.1028 55.0432C50.6379 55.6231 51.3999 55.9518 52.2488 55.9685C52.2709 55.9689 52.2927 55.9692 52.3148 55.9692C53.2271 55.9692 54.1393 55.5984 54.7664 54.9697C55.4092 54.3257 55.7819 53.3827 55.7633 52.4468C55.7466 51.5963 55.4188 50.8328 54.8369 50.2935Z" fill="white"/>
<path d="M21.5973 30.7331C22.6394 31.695 23.9932 32.2434 25.4096 32.2774C25.414 32.2777 25.4185 32.2777 25.4227 32.2777L27.8952 32.2854C28.859 32.2883 29.7854 32.6983 30.4356 33.4082L31.5247 34.6061C31.6491 34.7428 31.8192 34.8122 31.9903 34.8122C32.1416 34.8122 32.2935 34.7579 32.414 34.6478C32.6713 34.4131 32.6898 34.014 32.4556 33.7565L31.3648 32.557C30.4766 31.5868 29.2134 31.0281 27.8993 31.0237L25.4336 31.0159C24.338 30.988 23.2905 30.5677 22.4789 29.8315L15.3136 21.2971C15.2405 21.2098 15.246 21.0833 15.3264 21.0027C15.3815 20.9471 15.4463 20.9391 15.4799 20.9391C15.5136 20.9391 15.5783 20.9471 15.6337 21.0027L22.1559 27.5379C22.8006 28.1839 23.8497 28.1839 24.4944 27.5376L25.2609 26.7699V26.7696L26.6218 25.406C26.6218 25.406 26.6221 25.406 26.6221 25.4057L26.6224 25.4054L27.3886 24.6377C28.0333 23.9918 28.0333 22.9406 27.3886 22.2946L20.8664 15.7597C20.7818 15.675 20.7818 15.5366 20.8664 15.4518C20.9469 15.3713 21.0731 15.3658 21.1603 15.439L29.6781 22.6186C30.4132 23.4315 30.8326 24.4814 30.8605 25.5788L30.8679 28.0497C30.8723 29.366 31.4302 30.6316 32.3999 31.5235L33.5669 32.5885C33.8242 32.8232 34.2222 32.8046 34.4564 32.5471C34.6903 32.2893 34.6717 31.8905 34.4148 31.6558L33.2496 30.5925C32.5392 29.9394 32.1304 29.0109 32.1272 28.0455L32.1195 25.5682C32.1195 25.5637 32.1195 25.5592 32.1192 25.5547C32.0852 24.1356 31.5379 22.7791 30.5779 21.735C30.5599 21.7154 30.5407 21.6968 30.5202 21.6795L21.9706 14.4736C21.3798 13.9753 20.5223 14.0125 19.9763 14.5596C19.4004 15.1366 19.4004 16.075 19.9763 16.6516L26.4984 23.1869C26.6522 23.341 26.6522 23.5917 26.4984 23.7458L26.177 24.0675L18.9079 16.7846C18.6621 16.538 18.2635 16.538 18.0178 16.7846C17.772 17.0308 17.772 17.4302 18.0178 17.6765L25.2868 24.9598L24.8158 25.4314L17.5467 18.1484C17.3009 17.9022 16.9023 17.9022 16.6565 18.1484C16.4104 18.3947 16.4104 18.7941 16.6565 19.0403L23.9253 26.3236L23.6042 26.6457C23.4504 26.7998 23.2002 26.7998 23.0463 26.6457L16.5239 20.1108C16.2451 19.8314 15.8744 19.6773 15.4799 19.6773C15.0854 19.6773 14.7147 19.8314 14.4359 20.1108C13.8899 20.6579 13.8531 21.517 14.35 22.1094L21.5422 30.6753C21.5592 30.6958 21.5778 30.7151 21.5973 30.7331Z" fill="white"/>
</g>
<circle cx="35" cy="35" r="34.5" stroke="white"/>
<circle cx="35" cy="35" r="32.4" stroke="white"/>
<defs>
<clipPath id="clip0">
<rect width="42" height="42" fill="white" transform="translate(14 14)"/>
</clipPath>
</defs>
</svg>