<?xml version="1.0"?>
<svg xmlns="http://www.w3.org/2000/svg" id="Outline" viewBox="0 0 512 512" width="512" height="512"><path d="M128,488H416a8,8,0,0,0,8-8V288a40.132,40.132,0,0,0-4.706-18.823L360,158V48A40.045,40.045,0,0,0,320,8H128A40.045,40.045,0,0,0,88,48V448A40.045,40.045,0,0,0,128,488ZM352,360a8,8,0,0,0,8-8V192l45.177,84.706A24.1,24.1,0,0,1,408,288V472H360a72.085,72.085,0,0,1-71.984-70.485,8,8,0,0,0-1.227-5.994l-51.894-76.8a24,24,0,1,1,39.771-26.874c.047.07.1.138.145.207l46.705,64.636A8,8,0,0,0,328,360ZM232.668,344H192a16,16,0,0,1,0-32h23.363a39.744,39.744,0,0,0,6.274,15.674ZM304,183.99V184c0,8.822-7.69,16-17.143,16a17.442,17.442,0,0,1-14.387-7.307,8,8,0,0,0-13.131,0,17.818,17.818,0,0,1-28.774,0,8,8,0,0,0-13.13,0,17.818,17.818,0,0,1-28.774,0,8,8,0,0,0-13.131,0A17.442,17.442,0,0,1,161.143,200C151.69,200,144,192.822,144,184ZM160.805,168A40.069,40.069,0,0,1,200,136h48A40.069,40.069,0,0,1,287.2,168Zm-2.259,48v-.108c.858.065,1.722.108,2.6.108a33.833,33.833,0,0,0,20.953-7.2,34.074,34.074,0,0,0,41.9,0,34.074,34.074,0,0,0,41.9,0,33.833,33.833,0,0,0,20.953,7.2c.875,0,1.739-.043,2.6-.108V216c3.609,0,6.546,3.589,6.546,8s-2.937,8-6.546,8H158.546c-3.609,0-6.546-3.589-6.546-8S154.937,216,158.546,216ZM160,248H288v8a8.009,8.009,0,0,1-8,8H168a8.009,8.009,0,0,1-8-8ZM104,48a24.028,24.028,0,0,1,24-24H320a24.028,24.028,0,0,1,24,24V72H104Zm0,40H344V344H332.089l-44.24-61.226a40.423,40.423,0,0,0-2.565-3.367A24.038,24.038,0,0,0,304,256V242.316A24.6,24.6,0,0,0,312,224a24.868,24.868,0,0,0-4.794-14.769A31.581,31.581,0,0,0,320,184a16.019,16.019,0,0,0-16-16h-.581A56.078,56.078,0,0,0,248,120H200a56.078,56.078,0,0,0-55.419,48H144a16.019,16.019,0,0,0-16,16,31.581,31.581,0,0,0,12.794,25.231A24.868,24.868,0,0,0,136,224a24.6,24.6,0,0,0,8,18.316V256a24.028,24.028,0,0,0,24,24h55.786a40,40,0,0,0-7.89,16H192a32,32,0,0,0,0,64h51.478L265.1,392H104Zm0,320H272.383a88,88,0,0,0,37.111,64H128a24.028,24.028,0,0,1-24-24Z"/><circle cx="176" cy="48" r="8"/><path d="M272,40H216a8,8,0,0,0,0,16h56a8,8,0,0,0,0-16Z"/><path d="M224,464a24,24,0,1,0-24-24A24.028,24.028,0,0,0,224,464Zm0-32a8,8,0,1,1-8,8A8.009,8.009,0,0,1,224,432Z"/></svg>
