<svg width="40" height="40" viewBox="0 0 40 40" fill="none" xmlns="http://www.w3.org/2000/svg">
<path d="M39.5112 37.155L28.1363 25.78C30.3397 23.0584 31.6663 19.6 31.6663 15.8334C31.6663 7.10336 24.563 0 15.8331 0C7.1032 0 0 7.10328 0 15.8333C0 24.5633 7.10328 31.6666 15.8332 31.6666C19.5998 31.6666 23.0581 30.34 25.7797 28.1366L37.1546 39.5116C37.4796 39.8366 37.9062 40 38.3329 40C38.7597 40 39.1863 39.8366 39.5113 39.5116C40.1629 38.86 40.1629 37.8066 39.5112 37.155ZM15.8332 28.3333C8.9399 28.3333 3.33332 22.7266 3.33332 15.8333C3.33332 8.93992 8.9399 3.33328 15.8332 3.33328C22.7265 3.33328 28.333 8.93992 28.333 15.8333C28.333 22.7266 22.7264 28.3333 15.8332 28.3333Z" fill="black"/>
</svg>